<svg xmlns="http://www.w3.org/2000/svg" xmlns:xlink="http://www.w3.org/1999/xlink" viewBox="0 0 100 100" preserveAspectRatio="xMidYMid">
<defs><clipPath id="ldio-jkjytavholi-cp"><rect x="20" y="0" width="60" height="100"></rect></clipPath></defs>
<path fill="none" stroke="#0a0a0a" stroke-width="5" stroke-linecap="round" stroke-linejoin="round" stroke-miterlimit="10" clip-path="url(#ldio-jkjytavholi-cp)" d="M90,76.7V28.3c0-2.7-2.2-5-5-5h-3.4c-2.7,0-5,2.2-5,5v43.4c0,2.7-2.2,5-5,5h-3.4c-2.7,0-5-2.2-5-5V28.3c0-2.7-2.2-5-5-5H55 c-2.7,0-5,2.2-5,5v43.4c0,2.7-2.2,5-5,5h-3.4c-2.7,0-5-2.2-5-5V28.3c0-2.7-2.2-5-5-5h-3.4c-2.7,0-5,2.2-5,5v43.4c0,2.7-2.2,5-5,5H15 c-2.7,0-5-2.2-5-5V23.3">
<animateTransform attributeName="transform" type="translate" repeatCount="indefinite" dur="1s" values="7 0;-20 0" keyTimes="0;1"></animateTransform>
<animate attributeName="stroke-dasharray" repeatCount="indefinite" dur="1s" values="0 197 125 233;0 72 125 232" keyTimes="0;1"></animate>
</path>
</svg>